<svg xmlns="http://www.w3.org/2000/svg" xmlns:xlink="http://www.w3.org/1999/xlink" viewBox="0 0 739.93138 191.44802"><defs><style>.cls-1{fill:#ededed;}.cls-2{fill:url(#Gradiente-blue-code);}.cls-3{fill:url(#Gradiente-blue-code-2);}.cls-4{fill:#0285f4;}.cls-5{fill:url(#Gradiente-blue-code-3);}.cls-6{fill:url(#Gradiente-blue-code-4);}</style><linearGradient id="Gradiente-blue-code" x1="33.07148" y1="17.47314" x2="118.26473" y2="17.47314" gradientUnits="userSpaceOnUse"><stop offset="0.00559" stop-color="#0285f4"/><stop offset="0.97114" stop-color="#49c3f4"/></linearGradient><linearGradient id="Gradiente-blue-code-2" x1="55.90209" y1="65.69161" x2="118.26478" y2="65.69161" xlink:href="#Gradiente-blue-code"/><linearGradient id="Gradiente-blue-code-3" x1="47.1233" y1="161.08176" x2="118.26478" y2="161.08176" xlink:href="#Gradiente-blue-code"/><linearGradient id="Gradiente-blue-code-4" x1="0" y1="113.60038" x2="118.26478" y2="113.60038" xlink:href="#Gradiente-blue-code"/></defs><title>2Ativo 12</title><g id="Camada_2" data-name="Camada 2"><g id="Camada_1-2" data-name="Camada 1"><path class="cls-1" d="M203.82723.77842q13.6796,0,22.46745,2.00135a4.50153,4.50153,0,0,1,2.27993,1.16863,3.506,3.506,0,0,1,.61147,2.28094V17.01653a1.47544,1.47544,0,0,1-1.66846,1.66947H203.82723q-9.789,0-12.9032,5.33828-3.002,5.3403-3.003,20.8,0,15.46272,3.003,20.91062,3.11367,5.45193,12.9032,5.45092h23.69039a1.474,1.474,0,0,1,1.66846,1.66746V83.64248a3.27788,3.27788,0,0,1-2.8914,3.44755q-8.2322,2.00337-22.46745,2.00136-11.34587,0-18.18617-2.112a22.61655,22.61655,0,0,1-11.06678-7.231,31.41731,31.41731,0,0,1-5.78381-13.2914Q167.122,58.39526,167.122,44.82427q0-25.80237,7.45227-34.92612Q182.02505.78043,203.82723.77842Z"/><path class="cls-1" d="M241.30985,31.36593q5.7823-6.4506,23.802-6.45059,17.90808,0,23.69139,6.45059,5.89393,6.45058,5.89544,25.69375,0,19.24317-5.89544,25.69375-5.7838,6.339-23.69139,6.338-17.9081,0-23.802-6.338-5.78531-6.23034-5.78381-25.69375Q235.526,37.59628,241.30985,31.36593ZM273.23194,44.601q-1.7801-3.002-8.12006-3.003-6.23035,0-8.23069,3.11568-1.89174,3.11365-1.89073,12.346,0,9.23238,1.89073,12.346,2.00335,3.002,8.23069,3.003,6.34045,0,8.12006-3.003,2.00185-3.00505,2.00236-12.346Q275.2343,47.82732,273.23194,44.601Z"/><path class="cls-1" d="M343.30243,1.4462h16.01686q1.66846,0,1.66846,1.7801V83.53185q0,2.89341-2.55851,3.22429A158.03341,158.03341,0,0,1,333.181,89.09139a63.38554,63.38554,0,0,1-15.23844-1.44419,19.07047,19.07047,0,0,1-9.11974-5.117,21.03017,21.03017,0,0,1-4.61618-9.62058,77.3603,77.3603,0,0,1-1.27926-15.84991q0-18.57336,5.33929-25.35986,5.33878-6.78247,20.24283-6.78448,6.44909,0,13.12445.66577V3.2263Q341.634,1.4462,343.30243,1.4462ZM341.634,71.63034V41.71061h-8.00843q-7.34064,0-9.343,2.8904-2.00185,2.89341-2.00135,12.45867,0,9.00911,1.66846,12.2334,1.77708,3.11667,8.78685,3.11567A42.59477,42.59477,0,0,0,341.634,71.63034Z"/><path class="cls-1" d="M400.25148,24.91534q17.12665,0,22.80135,6.34,5.78229,6.23034,5.78381,25.47049v3.44755a3.06541,3.06541,0,0,1-.72311,2.39157,4.15115,4.15115,0,0,1-2.61382.61147H390.79685q.22176,5.89846,2.33625,7.5629,2.33524,1.66847,9.23137,1.66947h20.46609a1.474,1.474,0,0,1,1.66847,1.66746V85.42258a1.76392,1.76392,0,0,1-1.55784,1.89072q-8.12056,1.78009-22.68971,1.77809-17.5762,0-23.3575-6.338-5.897-6.56221-5.89544-25.69375,0-19.24316,5.89544-25.69375Q382.67477,24.91533,400.25148,24.91534Zm0,16.68263q-5.23017,0-7.397,2.17031-2.1693,2.1663-2.16931,7.61923h18.687q0-5.56054-2.05767-7.67555Q405.25385,41.6,400.25148,41.598Z"/><path class="cls-1" d="M468.54388,1.7801a135.43637,135.43637,0,0,1,23.24687,2.22462q2.00187.66678,2.00236,2.00135v9.00911q0,2.00335-2.114,2.00135H465.31859q-10.23406,0-10.233,7.231v1.55683q0,5.78381,6.56222,8.34132l20.8,8.12006q8.34233,3.33693,11.90152,8.23069,3.55717,4.89678,3.55919,14.12613v3.11367q0,11.34736-7.95312,16.35075-7.9531,5.00539-24.0806,5.00439a175.44748,175.44748,0,0,1-27.47284-2.33525,2.3529,2.3529,0,0,1-1.89073-2.44587v-8.454q0-2.00337,2.113-2.00135h31.58819q10.1209,0,10.12242-6.89713v-1.4462a8.08936,8.08936,0,0,0-1.7801-5.56155q-1.7801-2.00035-6.22833-3.66881l-21.69-8.12007q-7.00725-2.67014-10.12142-7.89679-3.11517-5.22867-3.11366-14.79392V23.02461q0-11.456,7.50759-16.35075Q452.41689,1.7801,468.54388,1.7801Z"/><path class="cls-1" d="M534.61267,25.69375A91.62642,91.62642,0,0,1,552.74251,27.14a2.04547,2.04547,0,0,1,1.89073,2.22462v8.78584q0,1.7801-1.89073,1.78009H534.61267q-7.45379,0-9.67689,3.33693-2.1135,3.2253-2.113,14.12614,0,10.67757,2.113,14.12412,2.22361,3.33693,9.67689,3.33693h18.12984q1.89022,0,1.89073,1.66947v8.89848a1.98772,1.98772,0,0,1-1.89073,2.112,88.18347,88.18347,0,0,1-18.12984,1.55683,62.52925,62.52925,0,0,1-14.68229-1.33357,15.67606,15.67606,0,0,1-8.34132-5.00439,21.56875,21.56875,0,0,1-4.11534-9.39932,87.24163,87.24163,0,0,1-1.11231-15.96053A87.2664,87.2664,0,0,1,507.47372,41.431a20.75318,20.75318,0,0,1,4.11534-9.28669,15.38747,15.38747,0,0,1,8.286-5.117Q525.0464,25.69375,534.61267,25.69375Z"/><path class="cls-1" d="M584.99648,25.69375a71.64661,71.64661,0,0,1,14.79392,1.22294,2.10559,2.10559,0,0,1,1.7791,2.22462V38.261q0,1.66847-1.89073,1.66947H589.22346q-4.672,0-6.22833,1.11231-1.55985,1.11332-1.55784,4.55987V86.75614q0,1.7801-1.66846,1.7801H566.53274q-1.667,0-1.66746-1.7801V41.37672q0-7.67554,4.11535-11.56762Q573.87288,25.69375,584.99648,25.69375Z"/><path class="cls-1" d="M618.02886,0q4.56038,0,7.06307,2.33525a8.537,8.537,0,0,1,2.5032,6.56323,8.71568,8.71568,0,0,1-2.5032,6.61754q-2.50269,2.39258-7.06307,2.39156-4.67049,0-7.229-2.39156a8.609,8.609,0,0,1-2.55852-6.61754,8.43411,8.43411,0,0,1,2.55852-6.56323Q613.35687,0,618.02886,0ZM611.356,26.2489h13.12445a1.47544,1.47544,0,0,1,1.66847,1.66947V86.75614q0,1.7801-1.66847,1.7801H611.356q-1.66846,0-1.66846-1.7801V27.91837A1.47544,1.47544,0,0,1,611.356,26.2489Z"/><path class="cls-1" d="M666.19007,25.69375q17.35143,0,23.24586,6.34,5.78231,6.11871,5.78381,24.4688,0,19.24315-5.33828,25.917-5.23017,6.67386-20.35446,6.67185a123.2901,123.2901,0,0,1-13.68161-.66578v20.798a1.47544,1.47544,0,0,1-1.66847,1.66947H641.05247a1.47544,1.47544,0,0,1-1.66847-1.66947V30.58751a2.57183,2.57183,0,0,1,2.33626-2.78178A153.363,153.363,0,0,1,666.19007,25.69375Zm.77841,14.23676H655.84539v34.1457a72.46342,72.46342,0,0,0,10.01078.66779q8.34233,0,10.567-3.2263,2.33524-3.11066,2.33524-14.12412,0-10.45431-2.00236-14.01551Q674.75415,39.93253,666.96848,39.93051Z"/><path class="cls-1" d="M712.014,12.45666l13.12445-3.44755q1.7786-.44352,1.7801,1.66947V26.5828h10.23305q1.88871,0,1.89073,1.66947v8.89646q0,1.66846-1.89073,1.66947H726.91856V69.18245q0,3.33693,1.38989,4.50556,1.38937,1.16761,5.17234,1.16662h4.55986q1.89022,0,1.89073,1.66947v9.45362a1.9529,1.9529,0,0,1-1.77909,2.114,48.27078,48.27078,0,0,1-9.45464.99967,41.93265,41.93265,0,0,1-10.45531-.99967,9.241,9.241,0,0,1-5.67217-4.061q-1.7801-2.94471-2.113-9.28668V38.8182H703.894q-1.78009,0-1.77909-1.66947V28.25227q0-1.66847,1.77909-1.66947h6.56323v-12.346A1.70494,1.70494,0,0,1,712.014,12.45666Z"/><path class="cls-1" d="M164.34828,113.8961h44.38679q.82366,0,.82468.74221v2.55851q0,.74222-.82468.74221h-19.8838v56.34966a.656.656,0,0,1-.74221.74221h-3.05231a.65635.65635,0,0,1-.74322-.74221V117.939H164.34828q-.8267,0-.82569-.74221v-2.55851Q163.52259,113.8961,164.34828,113.8961Z"/><path class="cls-1" d="M233.07313,130.31323q9.98061,0,13.36481,4.1254,3.29922,4.04294,3.46566,16.66654v2.39157a1.74548,1.74548,0,0,1-.32987,1.27926,2.4955,2.4955,0,0,1-1.48542.28964H220.11965q.08146,9.81769,2.64,13.20088,2.47555,3.21625,10.31351,3.21625h12.29273a.72945.72945,0,0,1,.82468.82468v1.89877q0,.66075-.74221.74221a113.27118,113.27118,0,0,1-12.3752.4948q-10.72735,0-14.02556-4.45527-3.30074-4.37179-3.30073-18.151a73.99919,73.99919,0,0,1,.65975-11.38458,15.52177,15.52177,0,0,1,2.55851-6.60145,9.38759,9.38759,0,0,1,5.07378-3.58836A33.22443,33.22443,0,0,1,233.07313,130.31323Zm0,3.96046q-7.92144,0-10.396,3.30073-2.39409,3.13779-2.55751,13.44828H245.5308q-.16594-10.3125-2.475-13.53075Q240.66167,134.27571,233.07313,134.27369Z"/><path class="cls-1" d="M276.71671,130.31323a106.64512,106.64512,0,0,1,11.96286.49681q.74221.16595.74221.74221v1.97923q0,.74221-.82468.74221H276.71671q-8.25181,0-10.80832,3.71307-2.47554,3.54811-2.475,14.85024,0,11.30513,2.475,15.01517,2.64,3.63261,10.80832,3.6306H288.5971a.72945.72945,0,0,1,.82468.82468v1.89877q0,.66075-.74221.74221a106.74856,106.74856,0,0,1-11.96286.4948q-10.72585,0-14.273-4.45527-3.46515-4.6192-3.46566-18.151,0-13.52875,3.46566-17.986Q265.98885,130.31625,276.71671,130.31323Z"/><path class="cls-1" d="M316.39982,130.31323a40.00952,40.00952,0,0,1,8.08587.61951,11.34194,11.34194,0,0,1,4.95008,2.43381q4.12439,3.46667,4.1254,15.09764v25.8245c0,.4948-.27657.74221-.82569.74221h-2.80491a.656.656,0,0,1-.74221-.74221v-25.8245q0-9.4858-3.05332-11.96185a7.581,7.581,0,0,0-3.50589-1.81631,29.19753,29.19753,0,0,0-5.65206-.41234H303.19994v40.015a.65674.65674,0,0,1-.74322.74221h-2.88738a.656.656,0,0,1-.74221-.74221V132.04706c0-.4405.30171-.714.90715-.82468A120.30691,120.30691,0,0,1,316.39982,130.31323Z"/><path class="cls-1" d="M362.51843,130.31323q10.8073,0,14.273,4.53774,3.46515,4.45628,3.46465,17.986,0,13.61322-3.46465,18.151-3.46517,4.45628-14.273,4.45527-10.72584,0-14.273-4.45527-3.46517-4.6192-3.46566-18.151,0-13.52875,3.46566-17.986Q351.79057,130.31625,362.51843,130.31323Zm0,3.96046q-8.2518,0-10.80831,3.71307-2.47554,3.54811-2.475,14.85024,0,11.30513,2.475,15.01517,2.64,3.63261,10.80831,3.6306,8.33176,0,10.80731-3.6306,2.557-3.62656,2.55751-15.01517,0-11.30212-2.55751-14.85024Q370.8517,134.2757,362.51843,134.27369Z"/><path class="cls-1" d="M392.46632,113.8961h2.80491c.54911,0,.82568.2474.82568.74221v59.65038c0,.4948-.27657.74221-.82568.74221h-2.80491a.656.656,0,0,1-.74221-.74221V114.63831A.656.656,0,0,1,392.46632,113.8961Z"/><path class="cls-1" d="M425.30259,130.31323q10.8073,0,14.273,4.53774,3.46516,4.45628,3.46466,17.986,0,13.61322-3.46466,18.151-3.46515,4.45628-14.273,4.45527-10.72584,0-14.273-4.45527-3.46515-4.6192-3.46566-18.151,0-13.52875,3.46566-17.986Q414.57474,130.31625,425.30259,130.31323Zm0,3.96046q-8.25182,0-10.80831,3.71307-2.47555,3.54811-2.475,14.85024,0,11.30513,2.475,15.01517,2.64,3.63261,10.80831,3.6306,8.33177,0,10.8073-3.6306,2.557-3.62656,2.55751-15.01517,0-11.30212-2.55751-14.85024Q433.63587,134.2757,425.30259,134.27369Z"/><path class="cls-1" d="M470.26464,130.31323q5.77476,0,16.50061.66175a1.1045,1.1045,0,0,1,.99062,1.237v41.58188a39.48857,39.48857,0,0,1-.74221,8.66314,11.57,11.57,0,0,1-2.72345,5.28,10.22441,10.22441,0,0,1-5.19749,2.88638,38.751,38.751,0,0,1-8.993.82467q-5.85773,0-11.05471-.41233-.74372,0-.74322-.82468v-1.89676c0-.55113.24741-.82468.74322-.82468h11.05471q8.00139,0,10.64337-2.476,2.64-2.39256,2.64-9.40535v-.65974q-5.117.49481-11.71546.4948a40.7965,40.7965,0,0,1-9.90016-.90714A9.57967,9.57967,0,0,1,456.405,170.988a14.37618,14.37618,0,0,1-2.641-6.59944,78.79259,78.79259,0,0,1-.57727-11.13918,82.284,82.284,0,0,1,.57727-11.38459,16.21121,16.21121,0,0,1,2.475-6.93131,8.87187,8.87187,0,0,1,4.95109-3.67083A33.15253,33.15253,0,0,1,470.26464,130.31323Zm13.11842,40.7572V134.27369H470.26464q-8.2503,0-10.47743,3.54813-2.22814,3.63261-2.22764,15.42752,0,3.21926.16494,6.519.41182,6.02215,2.14517,8.16632a7.7409,7.7409,0,0,0,4.20787,2.76569,28.69952,28.69952,0,0,0,7.59005.78244Q478.02014,171.48277,483.38306,171.07043Z"/><path class="cls-1" d="M502.771,116.2052q3.05031,0,3.05232,2.97085,0,3.13781-3.05232,3.13579-2.97035,0-2.97085-3.13579A2.62655,2.62655,0,0,1,502.771,116.2052Zm-1.403,14.68731h2.88738a.65674.65674,0,0,1,.74322.74221v42.654a.65674.65674,0,0,1-.74322.74221h-2.88738a.656.656,0,0,1-.74221-.74221v-42.654A.656.656,0,0,1,501.36808,130.89251Z"/><path class="cls-1" d="M529.99648,130.31323q8.74361,0,13.24212,3.01309,4.4955,3.01108,4.4955,9.94039V172.225a1.81488,1.81488,0,0,1-1.48442,1.89877q-4.20737,1.3215-16.58307,1.31948-8.33478,0-11.633-2.80591-3.21776-2.88437-3.21825-10.0651,0-6.1881,3.13578-8.95077,3.13479-2.76369,10.14757-2.76368H543.3623v-7.09626q0-5.114-3.34195-7.30141-3.34146-2.18441-10.02387-2.18641h-10.23a.65633.65633,0,0,1-.74321-.74221v-1.81429a.779.779,0,0,1,.66074-.82468A82.51128,82.51128,0,0,1,529.99648,130.31323Zm13.36582,40.26239V154.73577H528.09872q-4.78515,0-6.80661,1.81429-2.023,1.8163-2.02147,6.02216,0,5.03556,2.39257,7.01379,2.39257,1.97922,8.74561,1.97923A63.11525,63.11525,0,0,0,543.3623,170.57562Z"/><rect class="cls-2" x="33.07148" y="7.2431" width="85.19326" height="20.46008" rx="0.1494"/><rect class="cls-3" x="55.90209" y="55.46261" width="62.36269" height="20.45802" rx="0.1494"/><rect class="cls-4" x="20.2539" y="55.46261" width="25.63441" height="20.45802" rx="0.1494"/><rect class="cls-5" x="47.1233" y="150.85769" width="71.14148" height="20.44813" rx="0.1494"/><rect class="cls-4" x="7.39097" y="150.85769" width="28.18183" height="20.44813" rx="0.1494"/><rect class="cls-6" y="103.37642" width="118.26478" height="20.44792" rx="0.1494"/></g></g></svg>