<svg width="569" height="490" viewBox="0 0 569 490" fill="none" xmlns="http://www.w3.org/2000/svg">
<path d="M181.736 67.6599C177.163 43.1657 184.364 15.2993 204.379 0.4729C203.244 27.5468 211.717 54.1496 228.298 75.5745C234.723 83.8139 242.726 92.3089 242.478 102.757C242.323 109.257 238.809 115.313 234.179 119.876C229.548 124.438 223.845 127.728 218.209 130.966L217.332 132.331C200.811 113.686 186.31 92.1542 181.736 67.6599Z" fill="#F0F0F0"/>
<path d="M204.743 0.847303C196.334 19.6782 194.069 40.6815 198.269 60.8739C199.096 65.237 200.605 69.4423 202.741 73.3351C204.944 77.0599 208.104 80.1265 211.892 82.2162C215.385 84.2356 219.191 85.8966 222.133 88.7304C223.617 90.2034 224.773 91.9736 225.525 93.925C226.278 95.8764 226.61 97.9649 226.499 100.054C226.358 105.265 224.354 110.115 222.23 114.79C219.871 119.981 217.339 125.334 217.492 131.17C217.51 131.877 216.413 131.865 216.394 131.159C216.128 121.006 223.464 112.852 225.098 103.11C225.861 98.5638 225.259 93.7604 222.065 90.2367C219.272 87.1554 215.348 85.4393 211.794 83.4251C208.069 81.4408 204.886 78.5739 202.523 75.0749C200.196 71.3035 198.528 67.1633 197.589 62.8318C195.32 53.1137 194.592 43.0991 195.432 33.1549C196.328 21.8003 199.159 10.6827 203.802 0.283088C204.089 -0.360461 205.029 0.207948 204.743 0.847289L204.743 0.847303Z" fill="white"/>
<path d="M196.534 54.4516C193.053 54.6968 189.598 53.6957 186.786 51.6271C183.974 49.5585 181.988 46.5572 181.184 43.159C181.023 42.4709 182.084 42.1891 182.245 42.8782C182.988 46.0439 184.838 48.8395 187.461 50.7604C190.083 52.6813 193.305 53.601 196.546 53.3534C197.25 53.3004 197.235 54.3989 196.534 54.4516Z" fill="white"/>
<path d="M209.986 81.4256C214.712 76.0779 217.25 69.1442 217.094 62.0072C217.078 61.3001 218.176 61.3125 218.192 62.0187C218.34 69.446 215.684 76.6561 210.754 82.2102C210.284 82.7393 209.518 81.9518 209.986 81.4256Z" fill="white"/>
<path d="M197.614 22.4822C198.981 22.6682 200.373 22.5116 201.664 22.0265C202.955 21.5414 204.106 20.7429 205.013 19.7028C205.476 19.168 206.241 19.9562 205.781 20.4874C204.774 21.6319 203.502 22.5122 202.076 23.0514C200.651 23.5905 199.115 23.7722 197.603 23.5804C197.459 23.5743 197.322 23.5135 197.222 23.4105C197.121 23.3074 197.063 23.1698 197.06 23.0256C197.062 22.8802 197.121 22.7415 197.225 22.6398C197.329 22.5381 197.469 22.4814 197.614 22.4822Z" fill="white"/>
<path d="M286.229 20.7334C285.949 21.0755 285.669 21.4177 285.392 21.7688C281.653 26.3883 278.296 31.304 275.353 36.4675C275.119 36.8631 274.888 37.2676 274.666 37.6691C267.708 50.1847 263.134 63.8841 261.174 78.0708C260.399 83.7168 260.055 89.4135 260.144 95.1117C260.268 102.981 261.028 111.504 258.617 118.741C258.374 119.499 258.084 120.241 257.75 120.964L219.064 133.296C218.962 133.28 218.863 133.273 218.76 133.257L217.238 133.82C217.213 133.527 217.193 133.222 217.168 132.928C217.153 132.758 217.146 132.585 217.131 132.415C217.124 132.3 217.117 132.186 217.103 132.083C217.101 132.045 217.098 132.007 217.099 131.977C217.085 131.875 217.084 131.778 217.074 131.684C216.958 129.979 216.852 128.272 216.764 126.559C216.761 126.55 216.761 126.55 216.767 126.538C216.103 113.491 216.521 100.273 218.932 87.5394C219.005 87.1563 219.074 86.7645 219.164 86.3757C220.283 80.6419 221.867 75.0092 223.903 69.5338C225.027 66.5392 226.302 63.6035 227.723 60.7379C231.409 53.3407 236.234 46.5696 242.023 40.6728C253.563 28.9194 268.733 20.99 284.987 20.7403C285.403 20.7342 285.81 20.7306 286.229 20.7334Z" fill="#F0F0F0"/>
<path d="M286.298 21.2523C268.254 31.2219 253.807 46.6271 245.01 65.2799C243.045 69.2618 241.72 73.5287 241.083 77.9235C240.601 82.2247 241.278 86.5767 243.046 90.5272C244.619 94.2438 246.659 97.8632 247.303 101.898C247.601 103.968 247.459 106.078 246.886 108.089C246.312 110.101 245.321 111.968 243.975 113.569C240.727 117.645 236.209 120.311 231.7 122.763C226.693 125.487 221.45 128.236 218.061 132.988C217.65 133.563 216.781 132.892 217.191 132.317C223.088 124.05 233.851 121.959 241.018 115.165C244.363 111.995 246.772 107.798 246.342 103.06C245.966 98.9171 243.866 95.183 242.24 91.4336C240.46 87.6051 239.643 83.3985 239.862 79.1815C240.274 74.7684 241.433 70.4575 243.289 66.4334C247.325 57.3072 252.77 48.8727 259.424 41.4389C266.972 32.9126 275.921 25.741 285.886 20.2344C286.503 19.8938 286.911 20.914 286.298 21.2523Z" fill="white"/>
<path d="M247.489 59.1071C244.562 57.2055 242.406 54.3246 241.405 50.979C240.405 47.6334 240.625 44.0409 242.028 40.843C242.314 40.197 243.331 40.6112 243.044 41.2581C241.733 44.2336 241.528 47.5801 242.466 50.6936C243.404 53.8071 245.423 56.4826 248.159 58.2372C248.754 58.6191 248.08 59.4869 247.489 59.1071Z" fill="white"/>
<path d="M242 88.7478C248.991 87.3252 255.19 83.3181 259.359 77.5256C259.772 76.9514 260.641 77.6224 260.229 78.196C255.878 84.2157 249.419 88.3725 242.141 89.837C241.447 89.9761 241.309 88.8862 242 88.7479V88.7478Z" fill="white"/>
<path d="M267.588 34.2318C268.568 35.2037 269.773 35.917 271.096 36.3076C272.419 36.6982 273.818 36.7539 275.168 36.4697C275.86 36.3219 275.996 37.412 275.309 37.5588C273.816 37.8659 272.271 37.8025 270.808 37.3741C269.346 36.9458 268.01 36.1656 266.918 35.1016C266.807 35.01 266.735 34.8793 266.716 34.7363C266.698 34.5932 266.734 34.4485 266.818 34.3315C266.908 34.2168 267.039 34.1419 267.183 34.1232C267.327 34.1045 267.473 34.1435 267.588 34.2317V34.2318Z" fill="white"/>
<path d="M402.562 185.682C402.664 186.131 402.731 186.587 402.761 187.047L438.491 207.671L447.175 202.669L456.434 214.796L441.919 225.148C440.747 225.984 439.335 226.417 437.895 226.382C436.456 226.347 435.067 225.845 433.936 224.953L397.093 195.869C395.43 196.485 393.619 196.58 391.901 196.141C390.183 195.702 388.64 194.75 387.476 193.412C386.312 192.074 385.583 190.413 385.385 188.65C385.188 186.887 385.531 185.105 386.37 183.542C387.209 181.98 388.504 180.709 390.082 179.901C391.66 179.092 393.447 178.783 395.205 179.016C396.962 179.248 398.608 180.01 399.922 181.201C401.236 182.392 402.157 183.954 402.562 185.682Z" fill="#FFB6B6"/>
<path d="M438.987 205.394C439.1 204.868 439.326 204.373 439.648 203.942C439.97 203.511 440.381 203.154 440.854 202.897L457.349 193.904C459.546 192.245 462.311 191.525 465.037 191.903C467.763 192.28 470.228 193.724 471.892 195.918C473.556 198.112 474.282 200.876 473.912 203.605C473.541 206.334 472.105 208.804 469.916 210.475L456.695 223.914C456.318 224.297 455.863 224.595 455.36 224.786C454.857 224.978 454.319 225.059 453.782 225.023C453.246 224.988 452.723 224.837 452.25 224.582C451.777 224.326 451.364 223.971 451.04 223.541L439.657 208.44C439.333 208.011 439.105 207.516 438.99 206.99C438.874 206.465 438.873 205.92 438.987 205.394Z" fill="#3F3D56"/>
<path d="M467.711 153.841C470.085 146.273 475.482 139.331 482.946 136.773C490.411 134.214 501.341 138.112 506.953 143.708C517.218 153.944 517.534 166.475 510.481 177.588C509.078 177.514 504.238 177.459 502.818 177.406L500.81 170.708V177.34C489.728 176.997 478.191 177.212 466.648 177.433C465.614 169.565 465.338 161.41 467.711 153.841Z" fill="#2F2E41"/>
<path d="M465.282 470.797H455.174L450.366 431.787L465.283 431.788L465.282 470.797Z" fill="#FFB6B6"/>
<path d="M527.575 470.797H517.468L512.659 431.787L527.577 431.788L527.575 470.797Z" fill="#FFB6B6"/>
<path d="M498.062 231.205L500.352 237.163L499.894 243.122L455.072 258.656L457.296 232.581L462.334 226.623L498.062 231.205Z" fill="#FFB6B6"/>
<path d="M483.89 177.588C492.731 177.588 499.898 170.417 499.898 161.57C499.898 152.724 492.731 145.552 483.89 145.552C475.048 145.552 467.881 152.724 467.881 161.57C467.881 170.417 475.048 177.588 483.89 177.588Z" fill="#FFB7B7"/>
<path d="M508.097 258.544V268.725C508.097 268.725 520.006 284.21 513.594 296.126L531.968 454.71H512.73L480.615 320.875L466.926 451.96H450.436L448.47 347.706C447.953 320.284 452.529 293.004 461.965 267.253V267.253L508.097 258.544Z" fill="#2F2E41"/>
<path d="M472.89 140.712C475.966 138.835 479.489 137.821 483.091 137.773C486.694 137.725 490.242 138.647 493.367 140.442C496.491 142.236 499.076 144.838 500.852 147.974C502.627 151.111 503.528 154.667 503.46 158.271C494.512 158.683 485.112 158.79 475.58 158.808L473.327 153.292L471.999 158.812C469.095 158.812 466.185 158.808 463.27 158.801C463.151 155.207 463.977 151.645 465.665 148.47C467.353 145.296 469.844 142.621 472.89 140.712Z" fill="#2F2E41"/>
<path d="M469.803 490H462.631L461.351 483.225L458.072 490H439.05C438.138 490 437.25 489.709 436.515 489.168C435.781 488.627 435.238 487.866 434.967 486.995C434.696 486.124 434.71 485.189 435.007 484.326C435.304 483.464 435.869 482.719 436.62 482.201L451.81 471.703V464.854L467.788 465.808L469.803 490Z" fill="#2F2E41"/>
<path d="M533.013 490H525.841L524.561 483.225L521.282 490H502.26C501.348 490 500.46 489.709 499.725 489.168C498.991 488.627 498.448 487.866 498.177 486.995C497.906 486.124 497.92 485.189 498.217 484.326C498.514 483.464 499.08 482.719 499.83 482.201L515.02 471.703V464.854L530.998 465.808L533.013 490Z" fill="#2F2E41"/>
<path d="M515.381 291.195C516.271 278.96 515.354 266.661 512.66 254.694C509.26 239.59 504.939 220.372 504.855 219.876C504.854 219.866 504.853 219.856 504.853 219.846L503.536 191.696C503.532 191.614 503.498 191.537 503.439 191.479C503.381 191.422 503.304 191.388 503.222 191.386L494.113 191.079C494.029 191.076 493.949 191.041 493.89 190.98C493.832 190.92 493.799 190.839 493.799 190.754C493.799 190.075 493.665 189.403 493.406 188.776C493.146 188.148 492.765 187.578 492.285 187.098C491.806 186.618 491.236 186.237 490.609 185.977C489.982 185.717 489.31 185.584 488.632 185.584H470.439C469.261 185.584 468.123 186.015 467.239 186.795C466.356 187.575 465.787 188.652 465.641 189.821C465.633 189.902 465.594 189.976 465.534 190.03C465.473 190.084 465.395 190.112 465.314 190.111L458.235 189.872C458.164 189.87 458.094 189.891 458.036 189.932C457.978 189.973 457.935 190.032 457.913 190.1L457.421 191.665C450.274 214.693 448.29 239.014 451.609 262.896C452.467 269.252 452.078 278.808 451.754 284.132C451.722 284.652 451.793 285.174 451.963 285.667C452.133 286.16 452.398 286.614 452.744 287.004C453.09 287.394 453.51 287.712 453.979 287.939C454.448 288.166 454.957 288.298 455.478 288.328C468.638 289.086 505.901 307.126 514.822 298.513C514.844 298.492 515.081 295.315 515.381 291.195Z" fill="#3F3D56"/>
<path d="M442.396 185.682C442.498 186.131 442.564 186.587 442.595 187.047L478.324 207.671L487.009 202.669L496.267 214.796L481.753 225.148C480.581 225.984 479.169 226.417 477.729 226.382C476.29 226.347 474.9 225.845 473.77 224.953L436.926 195.869C435.264 196.485 433.453 196.58 431.735 196.141C430.017 195.702 428.473 194.75 427.309 193.412C426.145 192.074 425.416 190.413 425.219 188.65C425.021 186.887 425.365 185.105 426.204 183.542C427.043 181.98 428.338 180.709 429.916 179.901C431.494 179.092 433.28 178.783 435.038 179.016C436.796 179.248 438.441 180.01 439.756 181.201C441.07 182.392 441.991 183.954 442.396 185.682Z" fill="#FFB6B6"/>
<path d="M478.821 205.394C478.934 204.868 479.159 204.373 479.482 203.942C479.804 203.511 480.215 203.154 480.687 202.897L497.183 193.904C499.38 192.246 502.144 191.526 504.87 191.904C507.596 192.282 510.061 193.726 511.724 195.92C513.387 198.113 514.114 200.877 513.744 203.605C513.374 206.334 511.938 208.804 509.75 210.475L496.529 223.914C496.152 224.297 495.696 224.595 495.194 224.786C494.691 224.978 494.153 225.059 493.616 225.023C493.08 224.988 492.557 224.837 492.084 224.582C491.61 224.326 491.198 223.971 490.874 223.541L479.491 208.44C479.167 208.011 478.939 207.516 478.823 206.99C478.708 206.465 478.707 205.92 478.821 205.394Z" fill="#3F3D56"/>
<path d="M41.6852 434.429C64.7073 434.429 83.3703 415.755 83.3703 392.719C83.3703 369.683 64.7073 351.009 41.6852 351.009C18.6631 351.009 0 369.683 0 392.719C0 415.755 18.6631 434.429 41.6852 434.429Z" fill="#F0F0F0"/>
<path d="M410.046 247.98L107.959 386.756C103.659 388.726 98.7544 388.908 94.3202 387.264C89.886 385.619 86.2849 382.282 84.3069 377.983L9.75948 215.516C7.79123 211.214 7.60896 206.306 9.25266 201.869C10.8964 197.432 14.2318 193.829 18.5273 191.85L320.613 53.0733C324.913 51.1039 329.818 50.9215 334.253 52.5662C338.687 54.2109 342.288 57.5483 344.266 61.8463L418.813 224.314C420.782 228.616 420.964 233.524 419.32 237.961C417.677 242.398 414.341 246.001 410.046 247.98Z" fill="white"/>
<path d="M23.5518 202.8C22.1564 203.443 21.0728 204.614 20.5388 206.055C20.0048 207.496 20.064 209.091 20.7035 210.488L95.251 372.956C95.8936 374.352 97.0634 375.436 98.5039 375.971C99.9444 376.505 101.538 376.446 102.935 375.806L405.021 237.029C406.416 236.387 407.5 235.216 408.034 233.775C408.568 232.333 408.509 230.739 407.869 229.341L333.322 66.8738C332.679 65.4775 331.509 64.3933 330.069 63.859C328.628 63.3247 327.035 63.3839 325.638 64.0238L23.5518 202.8Z" fill="#E4E4E4"/>
<path d="M410.046 247.98L107.959 386.756C103.659 388.726 98.7544 388.908 94.3202 387.264C89.886 385.619 86.2849 382.282 84.3069 377.983L9.75948 215.516C7.79123 211.214 7.60896 206.306 9.25266 201.869C10.8964 197.432 14.2318 193.829 18.5273 191.85L320.613 53.0733C324.913 51.1039 329.818 50.9215 334.253 52.5662C338.687 54.2109 342.288 57.5483 344.266 61.8463L418.813 224.314C420.782 228.616 420.964 233.524 419.32 237.961C417.677 242.398 414.341 246.001 410.046 247.98ZM19.3002 193.534C15.4509 195.308 12.4619 198.537 10.9889 202.513C9.51592 206.489 9.6793 210.887 11.4432 214.743L85.9906 377.21C87.7632 381.062 90.9903 384.052 94.9639 385.526C98.9375 387 103.333 386.837 107.186 385.072L409.273 246.295C413.122 244.522 416.111 241.293 417.584 237.317C419.057 233.341 418.893 228.943 417.13 225.087L342.582 62.6198C340.81 58.7682 337.583 55.7774 333.609 54.3036C329.635 52.8297 325.24 52.9932 321.386 54.7581L19.3002 193.534Z" fill="#CACACA"/>
<path d="M334.562 174.255L94.5723 284.504C92.6393 285.389 90.4807 285.655 88.3909 285.267C86.3012 284.878 84.3822 283.854 82.896 282.333L12.68 210.284C11.5284 209.102 10.6772 207.661 10.1978 206.082C9.71849 204.502 9.62506 202.831 9.92537 201.208C10.2257 199.585 10.911 198.058 11.9237 196.755C12.9363 195.453 14.2468 194.412 15.7448 193.721L323.305 51.8569C324.784 51.1754 326.403 50.854 328.029 50.9191C329.656 50.9843 331.244 51.434 332.663 52.2316C334.083 53.0292 335.293 54.1519 336.195 55.5077C337.098 56.8636 337.666 58.414 337.854 60.032L337.895 60.0309L340.563 164.623C340.616 166.64 340.075 168.628 339.008 170.341C337.941 172.053 336.395 173.415 334.562 174.255ZM324.092 53.5356L16.5201 195.405C15.2914 195.972 14.2166 196.825 13.386 197.893C12.5554 198.962 11.9934 200.214 11.747 201.546C11.5007 202.877 11.5773 204.247 11.9705 205.543C12.3636 206.838 13.0618 208.02 14.0063 208.989L84.2222 281.039C85.4412 282.286 87.0151 283.126 88.7292 283.445C90.4433 283.764 92.2139 283.545 93.7993 282.82L333.789 172.57C335.292 171.881 336.561 170.765 337.436 169.36C338.311 167.955 338.754 166.324 338.711 164.67L336.067 61.0049L336.437 60.9958L336.067 61.0049C336.031 59.606 335.649 58.2379 334.954 57.0231C334.26 55.8084 333.275 54.785 332.089 54.0448C330.902 53.3045 329.55 52.8705 328.154 52.7816C326.759 52.6927 325.363 52.9518 324.092 53.5356Z" fill="#CACACA"/>
<path d="M184.067 323.404L109.296 357.753C108.753 358.003 108.167 358.143 107.57 358.166C106.973 358.189 106.378 358.094 105.818 357.887C105.257 357.679 104.744 357.363 104.306 356.957C103.868 356.551 103.514 356.062 103.265 355.519C103.015 354.976 102.876 354.389 102.853 353.792C102.831 353.194 102.926 352.599 103.134 352.038C103.342 351.478 103.658 350.964 104.065 350.526C104.471 350.088 104.96 349.735 105.503 349.486L180.274 315.137C181.369 314.635 182.619 314.589 183.748 315.008C184.878 315.428 185.794 316.279 186.297 317.374C186.8 318.47 186.847 319.72 186.429 320.851C186.011 321.981 185.161 322.899 184.067 323.404Z" fill="white"/>
<path d="M238.767 217.243C240.051 220.033 240.772 223.049 240.89 226.118C241.008 229.188 240.52 232.251 239.455 235.131C238.389 238.012 236.766 240.654 234.68 242.907C232.593 245.16 230.083 246.979 227.293 248.261C224.503 249.542 221.488 250.261 218.42 250.376C215.353 250.492 212.292 250.001 209.414 248.932C206.536 247.863 203.897 246.236 201.648 244.146C199.398 242.056 197.582 239.543 196.304 236.75" fill="#CACACA"/>
<path d="M407.352 468.963H74.9485C70.2195 468.957 65.6857 467.075 62.3417 463.729C58.9978 460.383 57.1168 455.847 57.1115 451.115V272.343C57.1169 267.611 58.9979 263.074 62.3418 259.729C65.6857 256.383 70.2195 254.501 74.9485 254.495H407.352C412.081 254.501 416.615 256.383 419.958 259.729C423.302 263.074 425.183 267.611 425.189 272.343V451.115C425.183 455.847 423.303 460.383 419.959 463.729C416.615 467.075 412.081 468.957 407.352 468.963Z" fill="white"/>
<path d="M74.9485 266.545C73.4122 266.546 71.9394 267.158 70.853 268.245C69.7667 269.332 69.1557 270.806 69.1539 272.343V451.115C69.1557 452.652 69.7667 454.126 70.853 455.213C71.9394 456.3 73.4122 456.911 74.9485 456.913H407.352C408.888 456.911 410.361 456.3 411.447 455.213C412.534 454.126 413.145 452.652 413.146 451.115V272.343C413.145 270.806 412.534 269.332 411.447 268.245C410.361 267.158 408.888 266.546 407.352 266.545H74.9485Z" fill="#0DE9C4"/>
<path d="M407.352 468.963H74.9485C70.2195 468.957 65.6857 467.075 62.3417 463.729C58.9978 460.383 57.1168 455.847 57.1115 451.115V272.343C57.1169 267.611 58.9979 263.074 62.3418 259.729C65.6857 256.383 70.2195 254.501 74.9485 254.495H407.352C412.081 254.501 416.615 256.383 419.958 259.729C423.302 263.074 425.183 267.611 425.189 272.343V451.115C425.183 455.847 423.303 460.383 419.959 463.729C416.615 467.075 412.081 468.957 407.352 468.963ZM74.9485 256.349C70.7107 256.354 66.6478 258.04 63.6512 261.039C60.6546 264.037 58.969 268.102 58.9642 272.343V451.115C58.969 455.355 60.6546 459.421 63.6512 462.419C66.6478 465.418 70.7107 467.104 74.9485 467.109H407.352C411.59 467.104 415.652 465.418 418.649 462.419C421.646 459.421 423.331 455.355 423.336 451.115V272.343C423.331 268.102 421.646 264.037 418.649 261.039C415.652 258.04 411.59 256.354 407.352 256.349H74.9485Z" fill="#3F3D56"/>
<path d="M369.495 370.448H105.421C103.296 370.445 101.223 369.785 99.4856 368.56C97.7485 367.334 96.4318 365.602 95.7151 363.6L61.9477 268.807C61.3939 267.252 61.2212 265.587 61.4441 263.952C61.667 262.316 62.279 260.758 63.2287 259.409C64.1783 258.059 65.4379 256.958 66.9015 256.197C68.3651 255.435 69.9899 255.037 71.6394 255.035L410.306 254.514C411.934 254.512 413.539 254.895 414.99 255.634C416.441 256.372 417.697 257.444 418.654 258.761C419.611 260.079 420.243 261.604 420.498 263.213C420.752 264.822 420.622 266.468 420.118 268.017L420.156 268.033L378.966 364.199C378.173 366.055 376.853 367.636 375.169 368.747C373.485 369.858 371.512 370.449 369.495 370.448ZM410.32 256.367L71.6419 256.888C70.289 256.89 68.9564 257.217 67.7559 257.841C66.5555 258.466 65.5224 259.369 64.7435 260.476C63.9646 261.583 63.4627 262.861 63.2798 264.202C63.097 265.543 63.2386 266.909 63.6928 268.184L97.4601 362.977C98.0479 364.619 99.1278 366.04 100.553 367.045C101.977 368.051 103.678 368.591 105.421 368.594H369.495C371.15 368.595 372.768 368.11 374.149 367.199C375.53 366.288 376.613 364.991 377.263 363.469L418.088 268.155L418.428 268.301L418.088 268.155C418.639 266.869 418.862 265.466 418.738 264.072C418.613 262.678 418.145 261.337 417.375 260.169C416.605 259.001 415.558 258.042 414.327 257.378C413.095 256.715 411.719 256.368 410.32 256.367Z" fill="#3F3D56"/>
<path d="M170.532 443.162H88.2577C87.0521 443.162 85.896 442.683 85.0435 441.83C84.1911 440.977 83.7122 439.82 83.7122 438.614C83.7122 437.408 84.1911 436.251 85.0435 435.398C85.896 434.545 87.0521 434.066 88.2577 434.066H170.532C171.738 434.066 172.894 434.545 173.746 435.398C174.599 436.251 175.078 437.408 175.078 438.614C175.078 439.82 174.599 440.977 173.746 441.83C172.894 442.683 171.738 443.162 170.532 443.162Z" fill="white"/>
<path d="M264.513 369.521C264.513 375.721 262.051 381.667 257.67 386.051C253.289 390.435 247.346 392.897 241.15 392.897C234.954 392.897 229.012 390.435 224.63 386.051C220.249 381.667 217.788 375.721 217.788 369.521" fill="#3F3D56"/>
<path d="M116.719 100.749C121.323 100.749 125.056 97.0139 125.056 92.4067C125.056 87.7995 121.323 84.0647 116.719 84.0647C112.114 84.0647 108.381 87.7995 108.381 92.4067C108.381 97.0139 112.114 100.749 116.719 100.749Z" fill="#F0F0F0"/>
<path d="M8.33704 300.957C12.9415 300.957 16.6741 297.222 16.6741 292.615C16.6741 288.008 12.9415 284.273 8.33704 284.273C3.73262 284.273 0 288.008 0 292.615C0 297.222 3.73262 300.957 8.33704 300.957Z" fill="#F0F0F0"/>
<path d="M425.189 144.312C429.793 144.312 433.526 140.578 433.526 135.97C433.526 131.363 429.793 127.628 425.189 127.628C420.584 127.628 416.852 131.363 416.852 135.97C416.852 140.578 420.584 144.312 425.189 144.312Z" fill="#F0F0F0"/>
<path d="M567.897 490H409.221C408.929 490 408.648 489.884 408.441 489.677C408.234 489.47 408.118 489.189 408.118 488.896C408.118 488.604 408.234 488.323 408.441 488.116C408.648 487.909 408.929 487.793 409.221 487.793H567.897C568.189 487.794 568.469 487.91 568.675 488.117C568.881 488.324 568.997 488.604 568.997 488.896C568.997 489.189 568.881 489.469 568.675 489.676C568.469 489.883 568.189 489.999 567.897 490Z" fill="#CACACA"/>
</svg>
